<svg xmlns="http://www.w3.org/2000/svg" xmlns:xlink="http://www.w3.org/1999/xlink" width="1080" zoomAndPan="magnify" viewBox="0 0 810 809.999993" height="1080" preserveAspectRatio="xMidYMid meet" version="1.0"><path fill="#0f5784" d="M 792.574219 639.472656 C 790.664062 632.300781 784.277344 627.585938 777.21875 627.355469 C 777.203125 627.332031 777.191406 627.304688 777.175781 627.28125 C 775.046875 623.730469 772.503906 620.410156 769.578125 617.382812 C 769.5625 617.367188 769.542969 617.351562 769.527344 617.335938 C 771.171875 610.460938 768.292969 603.050781 761.859375 599.324219 C 755.425781 595.597656 747.566406 596.78125 742.410156 601.617188 C 742.382812 601.609375 742.355469 601.601562 742.328125 601.59375 C 738.246094 600.5625 734.097656 600.007812 729.957031 599.921875 C 729.929688 599.921875 729.90625 599.925781 729.878906 599.921875 C 726.167969 593.917969 718.902344 590.726562 711.726562 592.632812 C 704.542969 594.542969 699.820312 600.9375 699.601562 608 C 699.578125 608.015625 699.554688 608.027344 699.53125 608.039062 C 695.980469 610.167969 692.664062 612.691406 689.636719 615.613281 C 689.617188 615.628906 689.605469 615.648438 689.585938 615.667969 C 682.703125 614.015625 675.28125 616.894531 671.546875 623.324219 C 667.816406 629.757812 669.003906 637.621094 673.855469 642.769531 C 673.851562 642.796875 673.839844 642.820312 673.835938 642.84375 C 672.804688 646.921875 672.257812 651.050781 672.171875 655.1875 C 672.171875 655.214844 672.175781 655.242188 672.175781 655.269531 C 666.148438 658.96875 662.945312 666.238281 664.855469 673.417969 C 666.761719 680.589844 673.144531 685.304688 680.203125 685.539062 C 680.214844 685.5625 680.226562 685.585938 680.242188 685.609375 C 682.371094 689.15625 684.914062 692.480469 687.835938 695.503906 C 687.855469 695.527344 687.878906 695.542969 687.898438 695.5625 C 686.257812 702.4375 689.136719 709.84375 695.570312 713.570312 C 702 717.296875 709.863281 716.113281 715.019531 711.273438 C 715.042969 711.28125 715.066406 711.289062 715.089844 711.292969 C 719.171875 712.328125 723.316406 712.882812 727.457031 712.964844 C 727.488281 712.964844 727.515625 712.964844 727.546875 712.964844 C 731.253906 718.972656 738.519531 722.167969 745.699219 720.257812 C 752.875 718.351562 757.597656 711.96875 757.824219 704.914062 C 757.847656 704.902344 757.871094 704.890625 757.894531 704.875 C 761.445312 702.75 764.769531 700.207031 767.796875 697.285156 C 767.816406 697.269531 767.832031 697.246094 767.847656 697.226562 C 774.730469 698.875 782.148438 695.996094 785.878906 689.566406 C 789.609375 683.136719 788.421875 675.277344 783.578125 670.128906 C 783.582031 670.101562 783.59375 670.078125 783.597656 670.054688 C 784.628906 665.976562 785.1875 661.832031 785.269531 657.695312 C 785.269531 657.667969 785.269531 657.640625 785.269531 657.613281 C 791.28125 653.910156 794.480469 646.648438 792.574219 639.472656 Z M 712.507812 647.058594 C 717.695312 638.117188 729.167969 635.082031 738.101562 640.253906 C 747.050781 645.441406 750.097656 656.886719 744.90625 665.828125 C 739.71875 674.773438 728.265625 677.816406 719.316406 672.632812 C 710.382812 667.457031 707.320312 656 712.507812 647.058594 Z M 712.507812 647.058594 " fill-opacity="1" fill-rule="nonzero"/><path fill="#0f5784" d="M 186.300781 662.035156 C 185.0625 657.382812 180.921875 654.324219 176.34375 654.179688 C 176.335938 654.164062 176.328125 654.144531 176.320312 654.128906 C 174.9375 651.828125 173.292969 649.675781 171.394531 647.714844 C 171.382812 647.703125 171.371094 647.695312 171.359375 647.683594 C 172.425781 643.226562 170.5625 638.421875 166.390625 636.007812 C 162.222656 633.59375 157.125 634.359375 153.785156 637.496094 C 153.765625 637.492188 153.75 637.484375 153.730469 637.480469 C 151.085938 636.8125 148.398438 636.449219 145.714844 636.398438 C 145.695312 636.398438 145.679688 636.398438 145.664062 636.398438 C 143.257812 632.503906 138.546875 630.433594 133.898438 631.671875 C 129.238281 632.910156 126.175781 637.054688 126.035156 641.636719 C 126.019531 641.644531 126.003906 641.648438 125.988281 641.660156 C 123.6875 643.035156 121.539062 644.671875 119.578125 646.566406 C 119.566406 646.578125 119.554688 646.59375 119.542969 646.601562 C 115.082031 645.53125 110.273438 647.398438 107.851562 651.566406 C 105.433594 655.738281 106.203125 660.835938 109.351562 664.171875 C 109.347656 664.1875 109.339844 664.203125 109.335938 664.21875 C 108.664062 666.863281 108.3125 669.539062 108.257812 672.21875 C 108.257812 672.238281 108.261719 672.253906 108.257812 672.269531 C 104.351562 674.667969 102.273438 679.382812 103.511719 684.035156 C 104.75 688.683594 108.890625 691.742188 113.464844 691.890625 C 113.472656 691.90625 113.476562 691.921875 113.488281 691.9375 C 114.867188 694.238281 116.515625 696.390625 118.410156 698.351562 C 118.421875 698.367188 118.4375 698.375 118.453125 698.390625 C 117.386719 702.847656 119.253906 707.648438 123.421875 710.0625 C 127.59375 712.480469 132.691406 711.710938 136.03125 708.574219 C 136.046875 708.578125 136.058594 708.582031 136.074219 708.589844 C 138.722656 709.257812 141.410156 709.617188 144.09375 709.671875 C 144.113281 709.671875 144.128906 709.667969 144.148438 709.667969 C 146.550781 713.5625 151.261719 715.636719 155.917969 714.398438 C 160.570312 713.164062 163.628906 709.023438 163.777344 704.449219 C 163.792969 704.441406 163.808594 704.4375 163.820312 704.429688 C 166.125 703.046875 168.277344 701.402344 170.242188 699.507812 C 170.253906 699.496094 170.261719 699.480469 170.273438 699.46875 C 174.734375 700.535156 179.542969 698.671875 181.960938 694.503906 C 184.378906 690.335938 183.609375 685.238281 180.46875 681.902344 C 180.472656 681.886719 180.480469 681.871094 180.484375 681.855469 C 181.152344 679.210938 181.511719 676.527344 181.566406 673.84375 C 181.566406 673.828125 181.5625 673.8125 181.5625 673.792969 C 185.464844 671.394531 187.539062 666.683594 186.300781 662.035156 Z M 134.402344 666.949219 C 137.765625 661.152344 145.203125 659.1875 150.992188 662.539062 C 156.792969 665.902344 158.765625 673.320312 155.402344 679.117188 C 152.039062 684.914062 144.617188 686.886719 138.816406 683.527344 C 133.023438 680.171875 131.039062 672.746094 134.402344 666.949219 Z M 134.402344 666.949219 " fill-opacity="1" fill-rule="nonzero"/><path fill="#ffffff" d="M 655.398438 139.980469 C 652.300781 146.648438 644.375 149.535156 637.671875 146.421875 C 631 143.328125 628.109375 135.410156 631.222656 128.707031 C 634.355469 122.058594 642.28125 119.171875 648.933594 122.300781 C 655.605469 125.394531 658.496094 133.3125 655.398438 139.980469 Z M 655.398438 139.980469 " fill-opacity="1" fill-rule="nonzero"/><path fill="#2492dd" d="M 635.507812 149.601562 C 627.339844 145.453125 623.871094 135.5 627.765625 127.105469 C 631.808594 118.535156 642.027344 114.84375 650.558594 118.855469 C 654.675781 120.785156 657.839844 124.199219 659.40625 128.496094 C 660.976562 132.789062 660.777344 137.4375 658.851562 141.585938 C 656.921875 145.734375 653.492188 148.878906 649.191406 150.445312 C 644.886719 152.011719 640.230469 151.808594 636.066406 149.875 C 635.878906 149.789062 635.691406 149.695312 635.507812 149.601562 Z M 647.648438 125.910156 C 647.542969 125.855469 647.4375 125.800781 647.332031 125.753906 C 642.582031 123.519531 636.910156 125.574219 634.667969 130.328125 C 632.457031 135.085938 634.539062 140.839844 639.273438 142.972656 C 641.59375 144.050781 644.191406 144.160156 646.585938 143.292969 C 648.96875 142.425781 650.875 140.679688 651.941406 138.378906 C 653.011719 136.074219 653.121094 133.492188 652.25 131.105469 C 651.421875 128.832031 649.792969 127 647.648438 125.910156 Z M 647.648438 125.910156 " fill-opacity="1" fill-rule="nonzero"/><path fill="#2492dd" d="M 608.683594 183.953125 C 608.535156 183.878906 608.390625 183.792969 608.253906 183.695312 C 606.515625 182.507812 606.074219 180.140625 607.265625 178.40625 L 631.625 142.921875 C 632.816406 141.191406 635.195312 140.730469 636.921875 141.9375 C 638.65625 143.125 639.097656 145.496094 637.910156 147.230469 L 613.546875 182.710938 C 612.453125 184.304688 610.359375 184.804688 608.683594 183.953125 Z M 608.683594 183.953125 " fill-opacity="1" fill-rule="nonzero"/><path fill="#2492dd" d="M 682.980469 164.519531 C 682.316406 164.179688 681.742188 163.640625 681.359375 162.9375 C 680.363281 161.085938 681.054688 158.777344 682.90625 157.78125 C 687.773438 155.160156 690.992188 151.03125 691.96875 146.160156 C 692.78125 142.113281 691.898438 138.011719 689.609375 135.191406 C 688.285156 133.558594 688.53125 131.164062 690.167969 129.839844 C 691.800781 128.515625 694.195312 128.761719 695.523438 130.394531 C 699.226562 134.957031 700.691406 141.40625 699.4375 147.65625 C 698.007812 154.789062 693.421875 160.765625 686.519531 164.480469 C 685.375 165.097656 684.058594 165.066406 682.980469 164.519531 Z M 682.980469 164.519531 " fill-opacity="1" fill-rule="nonzero"/><path fill="#2492dd" d="M 705.652344 178.742188 C 704.984375 178.402344 704.40625 177.863281 704.027344 177.152344 C 703.03125 175.300781 703.730469 172.992188 705.585938 172 C 714.117188 167.425781 719.769531 160.167969 721.492188 151.550781 C 722.949219 144.289062 721.328125 136.898438 717.164062 131.789062 C 715.835938 130.160156 716.082031 127.761719 717.710938 126.433594 C 719.34375 125.105469 721.742188 125.34375 723.070312 126.984375 C 728.65625 133.832031 730.859375 143.578125 728.964844 153.046875 C 726.785156 163.925781 719.757812 173.039062 709.183594 178.707031 C 708.039062 179.320312 706.726562 179.289062 705.652344 178.742188 Z M 705.652344 178.742188 " fill-opacity="1" fill-rule="nonzero"/><path fill="#2492dd" d="M 594.964844 105.007812 C 593.675781 104.351562 592.820312 102.992188 592.886719 101.457031 C 593.214844 93.617188 596.589844 86.875 602.394531 82.480469 C 607.46875 78.628906 613.917969 77.136719 619.640625 78.480469 C 621.683594 78.960938 622.957031 81.007812 622.472656 83.058594 C 621.992188 85.101562 619.945312 86.371094 617.894531 85.890625 C 614.359375 85.058594 610.285156 86.050781 607 88.542969 C 603.039062 91.542969 600.726562 96.246094 600.496094 101.773438 C 600.40625 103.875 598.632812 105.507812 596.53125 105.417969 C 595.96875 105.394531 595.4375 105.25 594.964844 105.007812 Z M 594.964844 105.007812 " fill-opacity="1" fill-rule="nonzero"/><path fill="#2492dd" d="M 572.222656 90.835938 C 570.9375 90.183594 570.082031 88.820312 570.140625 87.289062 C 570.636719 75.316406 575.765625 65.03125 584.582031 58.316406 C 592.269531 52.46875 602.007812 50.167969 610.640625 52.167969 C 612.667969 52.648438 613.960938 54.683594 613.488281 56.730469 C 613.015625 58.78125 610.96875 60.058594 608.917969 59.582031 C 602.476562 58.089844 595.101562 59.882812 589.199219 64.371094 C 582.214844 69.6875 578.15625 77.933594 577.753906 87.601562 C 577.667969 89.703125 575.894531 91.332031 573.792969 91.246094 C 573.226562 91.222656 572.695312 91.078125 572.222656 90.835938 Z M 572.222656 90.835938 " fill-opacity="1" fill-rule="nonzero"/><path fill="#2492dd" d="M 266.917969 661.164062 C 266.917969 661.164062 304.359375 679.871094 341.375 696.054688 C 319.296875 703.230469 270.539062 716.21875 243.035156 701.503906 C 216.972656 687.5625 199.695312 643.621094 191.980469 619.839844 C 227.699219 640.828125 266.917969 661.164062 266.917969 661.164062 Z M 266.917969 661.164062 " fill-opacity="1" fill-rule="nonzero"/><path fill="#1b72c1" d="M 290.796875 618.902344 C 337.964844 642.34375 408.660156 674.125 461.773438 688.074219 L 461.441406 689.398438 C 461.441406 689.398438 431.140625 728.566406 389.644531 715.140625 C 376.320312 710.84375 358.878906 703.71875 341.375 696.054688 C 304.359375 679.871094 266.917969 661.164062 266.917969 661.164062 C 266.917969 661.164062 227.699219 640.828125 191.980469 619.839844 C 176.527344 610.742188 161.742188 601.511719 151.066406 593.773438 C 115.789062 568.140625 129.660156 520.613281 129.660156 520.613281 L 130.84375 519.210938 C 173.664062 554.53125 242.875 594.011719 290.289062 618.644531 C 290.441406 618.765625 290.628906 618.816406 290.796875 618.902344 Z M 290.796875 618.902344 " fill-opacity="1" fill-rule="nonzero"/><path fill="#2492dd" d="M 720.433594 344.277344 C 720.269531 331.933594 718.824219 319.839844 715.941406 308.378906 C 714.304688 301.695312 712.152344 295.265625 709.488281 289.082031 C 678.75 217.796875 594.667969 169.425781 546.695312 144.46875 C 540.90625 141.480469 519.761719 130.722656 513.785156 127.769531 C 465.296875 103.65625 376.921875 64.378906 301.339844 81.449219 C 207.84375 102.558594 126.117188 243.601562 193.941406 300.226562 C 193.976562 300.242188 193.976562 300.242188 193.976562 300.242188 C 195.382812 301.429688 196.835938 302.597656 198.378906 303.679688 C 222.492188 320.945312 263.734375 346.109375 311.222656 372.617188 C 312.324219 373.21875 313.390625 373.804688 314.496094 374.410156 L 362.851562 400.632812 C 373.847656 406.398438 384.925781 412.160156 396.042969 417.773438 C 472.125 456.265625 548.351562 489.105469 590.238281 503.027344 C 594.960938 504.574219 599.605469 505.613281 604.199219 506.15625 C 626.59375 508.925781 647.472656 500.15625 665.117188 484.234375 C 698.082031 449.976562 716.539062 392.355469 720.433594 344.277344 Z M 720.433594 344.277344 " fill-opacity="1" fill-rule="nonzero"/><path fill="#2492dd" d="M 618.65625 553.785156 C 624.683594 521.746094 603.890625 508.777344 603.890625 508.777344 L 604.199219 506.15625 C 599.605469 505.613281 594.960938 504.574219 590.238281 503.027344 C 548.351562 489.105469 472.125 456.265625 396.042969 417.773438 C 384.925781 412.160156 373.847656 406.398438 362.851562 400.632812 L 314.496094 374.410156 C 313.390625 373.804688 312.324219 373.21875 311.222656 372.617188 C 263.734375 346.109375 222.492188 320.945312 198.378906 303.679688 C 196.835938 302.597656 195.382812 301.429688 193.976562 300.242188 C 193.976562 300.242188 193.976562 300.242188 193.941406 300.226562 C 192.886719 299.863281 171.675781 292.640625 149.109375 314.574219 C 128.878906 334.238281 112.246094 365.277344 104.5 384.515625 C 94.957031 408.222656 80.945312 459.441406 99.042969 486.585938 C 105.714844 496.554688 116.894531 507.667969 130.847656 519.207031 C 173.667969 554.53125 242.878906 594.007812 290.289062 618.640625 C 290.441406 618.761719 290.628906 618.8125 290.800781 618.898438 C 337.964844 642.339844 408.664062 674.117188 461.773438 688.070312 C 480.167969 692.902344 496.484375 695.605469 508.957031 695.117188 C 531.535156 694.175781 551.550781 679.546875 568.183594 659.648438 C 575.589844 650.816406 582.605469 641.078125 588.304688 630.722656 C 600.550781 608.480469 614.265625 577.113281 618.65625 553.785156 Z M 618.65625 553.785156 " fill-opacity="1" fill-rule="nonzero"/><path fill="#70caf2" d="M 127.929688 493.128906 C 125.902344 486.257812 125.179688 478.5 125.320312 470.410156 C 125.003906 458.65625 126.671875 447.222656 130.035156 436.378906 C 133.144531 423.339844 137.238281 411.382812 140.707031 402.933594 C 148.570312 383.757812 165.15625 352.691406 184.78125 332.722656 C 197.113281 320.167969 208.761719 316.742188 216.757812 316.203125 C 209.890625 311.699219 203.699219 307.488281 198.378906 303.679688 C 196.835938 302.597656 195.378906 301.429688 193.976562 300.246094 C 193.976562 300.246094 193.976562 300.246094 193.941406 300.226562 C 192.890625 299.863281 171.675781 292.636719 149.109375 314.574219 C 128.878906 334.238281 112.246094 365.277344 104.5 384.515625 C 94.957031 408.222656 80.945312 459.441406 99.042969 486.585938 C 105.714844 496.554688 116.894531 507.667969 130.847656 519.207031 C 133.421875 521.332031 136.125 523.476562 138.882812 525.628906 C 133.914062 515.449219 130.222656 504.527344 127.929688 493.128906 Z M 127.929688 493.128906 " fill-opacity="1" fill-rule="nonzero"/><path fill="#70caf2" d="M 372.578125 404.023438 C 371.457031 403.410156 370.367188 402.816406 369.246094 402.203125 C 320.925781 375.34375 278.910156 349.917969 254.300781 332.558594 C 252.726562 331.46875 251.234375 330.296875 249.796875 329.109375 C 249.796875 329.109375 249.796875 329.109375 249.765625 329.09375 C 219.671875 304.492188 217.617188 264.910156 232.550781 226.421875 C 255.015625 178.414062 284.8125 152.390625 305.871094 137.191406 C 320.3125 126.765625 337.003906 120.457031 353.628906 117.113281 C 429.390625 101.882812 519.128906 142.03125 568.417969 166.566406 C 574.492188 169.574219 595.988281 180.511719 601.871094 183.546875 C 613.988281 189.84375 628.378906 197.601562 643.65625 206.777344 C 610.324219 178.996094 573.058594 158.191406 546.691406 144.46875 C 540.90625 141.484375 519.757812 130.726562 513.785156 127.773438 C 465.292969 103.660156 376.921875 64.382812 301.339844 81.453125 C 207.839844 102.5625 126.113281 243.605469 193.941406 300.230469 C 193.972656 300.246094 193.972656 300.246094 193.972656 300.246094 C 195.378906 301.433594 196.835938 302.601562 198.378906 303.683594 C 222.492188 320.949219 263.734375 346.113281 311.21875 372.621094 C 312.320312 373.222656 313.390625 373.808594 314.492188 374.414062 L 362.847656 400.636719 C 373.84375 406.402344 384.925781 412.164062 396.042969 417.777344 C 404.363281 421.988281 412.683594 426.125 420.964844 430.183594 Z M 372.578125 404.023438 " fill-opacity="1" fill-rule="nonzero"/><path fill="#1b72c1" d="M 611.429688 491.960938 C 606.875 491.339844 602.261719 490.246094 597.554688 488.660156 C 555.828125 474.425781 479.734375 441.332031 403.65625 402.832031 C 392.539062 397.21875 381.457031 391.457031 370.457031 385.699219 L 322.066406 359.546875 C 320.960938 358.945312 319.894531 358.359375 318.789062 357.757812 C 271.253906 331.351562 229.921875 306.367188 205.695312 289.316406 C 204.148438 288.246094 202.683594 287.09375 201.265625 285.929688 C 201.265625 285.929688 201.265625 285.929688 201.234375 285.914062 C 199.207031 284.257812 197.308594 282.539062 195.535156 280.753906 C 185.027344 271.390625 176.125 260.242188 169.15625 247.808594 C 170.128906 268.242188 177.695312 286.667969 193.941406 300.230469 C 193.976562 300.25 193.976562 300.25 193.976562 300.25 C 195.378906 301.433594 196.835938 302.601562 198.378906 303.683594 C 222.488281 320.949219 263.734375 346.113281 311.21875 372.621094 C 312.320312 373.222656 313.390625 373.808594 314.492188 374.414062 L 362.847656 400.636719 C 373.84375 406.398438 384.925781 412.167969 396.042969 417.777344 C 472.125 456.269531 548.347656 489.109375 590.234375 503.03125 C 594.960938 504.578125 599.601562 505.617188 604.195312 506.160156 C 626.617188 508.917969 647.425781 500.136719 665.074219 484.21875 C 651.648438 489.773438 628.671875 494.386719 611.429688 491.960938 Z M 611.429688 491.960938 " fill-opacity="1" fill-rule="nonzero"/><path fill="#2492dd" d="M 553.726562 585.730469 C 561.558594 593.257812 568.21875 601.589844 573.976562 610.09375 C 594.625 640.636719 603.609375 673.972656 612.152344 683.902344 C 612.449219 684.246094 612.773438 684.570312 613.078125 684.863281 C 613.25 685.0625 613.453125 685.242188 613.683594 685.394531 C 613.914062 685.597656 614.117188 685.777344 614.347656 685.929688 C 614.375 685.90625 614.402344 685.933594 614.429688 685.90625 C 614.765625 686.121094 615.105469 686.28125 615.445312 686.390625 C 627.710938 690.660156 642.800781 678.253906 643.085938 620.195312 C 643.144531 608.253906 642.210938 597.253906 640.683594 587.3125 C 636.90625 562.675781 610.640625 547.808594 588.042969 558.359375 C 576.835938 563.59375 564.808594 572.082031 553.726562 585.730469 Z M 553.726562 585.730469 " fill-opacity="1" fill-rule="nonzero"/><path fill="#1b72c1" d="M 554.246094 585.285156 L 553.726562 585.730469 C 561.558594 593.257812 568.21875 601.589844 573.976562 610.09375 C 594.625 640.636719 603.609375 673.972656 612.152344 683.902344 C 612.449219 684.246094 612.773438 684.570312 613.078125 684.863281 C 613.25 685.0625 613.453125 685.242188 613.683594 685.394531 C 613.914062 685.597656 614.117188 685.777344 614.347656 685.929688 C 614.375 685.90625 614.402344 685.933594 614.429688 685.90625 C 625.539062 683.292969 624.066406 646.3125 612.175781 619.175781 C 602.433594 596.941406 574.089844 568.242188 554.246094 585.285156 Z M 554.246094 585.285156 " fill-opacity="1" fill-rule="nonzero"/><path fill="#ffffff" d="M 384.523438 97.515625 C 384.523438 97.515625 305.679688 99.175781 260.714844 141.128906 C 260.714844 141.128906 292.828125 67.523438 384.523438 97.515625 Z M 384.523438 97.515625 " fill-opacity="1" fill-rule="nonzero"/><path fill="#70caf2" d="M 458.4375 675.773438 C 458.4375 675.773438 499.257812 692.4375 526.398438 678.789062 C 553.542969 665.144531 565.523438 644.261719 565.523438 644.261719 C 565.523438 644.261719 542.039062 661.625 517.230469 668.554688 C 490.753906 675.949219 458.4375 675.773438 458.4375 675.773438 Z M 458.4375 675.773438 " fill-opacity="1" fill-rule="nonzero"/><path fill="#ffffff" d="M 124.339844 500.078125 C 124.339844 500.078125 103.777344 489.492188 101.003906 471.316406 C 98.273438 453.429688 106.921875 444.355469 106.921875 444.355469 C 106.921875 444.355469 105.804688 457.382812 111.066406 472.761719 C 115.71875 486.363281 124.339844 500.078125 124.339844 500.078125 Z M 124.339844 500.078125 " fill-opacity="1" fill-rule="nonzero"/><path fill="#2492dd" d="M 374.859375 700.339844 C 374.859375 700.339844 397.746094 714.757812 416.816406 709.144531 C 435.578125 703.621094 438.859375 691.445312 438.859375 691.445312 C 438.859375 691.445312 427.125 698.371094 409.179688 700.402344 C 393.304688 702.199219 374.859375 700.339844 374.859375 700.339844 Z M 374.859375 700.339844 " fill-opacity="1" fill-rule="nonzero"/><path fill="#2492dd" d="M 168.054688 594.234375 C 168.054688 594.234375 143.503906 584.519531 137.140625 565.96875 C 130.878906 547.714844 138.742188 537.871094 138.742188 537.871094 C 138.742188 537.871094 139.882812 551.347656 148.472656 566.875 C 156.070312 580.613281 168.054688 594.234375 168.054688 594.234375 Z M 168.054688 594.234375 " fill-opacity="1" fill-rule="nonzero"/><path fill="#70caf2" d="M 286.882812 699.238281 C 286.882812 699.238281 260.882812 704.339844 241.820312 690.949219 C 223.066406 677.773438 221.4375 664.253906 221.4375 664.253906 C 221.4375 664.253906 232.65625 675.96875 251.074219 685.316406 C 267.367188 693.585938 286.882812 699.238281 286.882812 699.238281 Z M 286.882812 699.238281 " fill-opacity="1" fill-rule="nonzero"/><path fill="#ffffff" d="M 396.105469 480.90625 C 420.882812 493.511719 430.746094 523.8125 418.132812 548.570312 C 405.515625 573.332031 375.195312 583.1875 350.417969 570.582031 C 325.605469 557.960938 315.742188 527.660156 328.355469 502.902344 C 340.96875 478.140625 371.292969 468.285156 396.105469 480.90625 Z M 396.105469 480.90625 " fill-opacity="1" fill-rule="nonzero"/><path fill="#62a5d3" d="M 353.824219 553.738281 C 353.15625 553.398438 352.582031 552.863281 352.199219 552.152344 C 351.203125 550.300781 351.898438 547.992188 353.75 546.996094 L 381.28125 532.203125 L 353.253906 525.320312 C 351.699219 524.929688 350.554688 523.632812 350.378906 522.046875 C 350.199219 520.460938 351.027344 518.933594 352.457031 518.21875 L 391.296875 498.773438 C 393.175781 497.832031 395.464844 498.589844 396.40625 500.472656 C 397.347656 502.355469 396.589844 504.640625 394.707031 505.582031 L 365.117188 520.394531 L 392.714844 527.171875 C 394.253906 527.554688 395.386719 528.828125 395.585938 530.386719 C 395.78125 531.953125 394.996094 533.476562 393.609375 534.222656 L 357.359375 553.703125 C 356.214844 554.3125 354.898438 554.285156 353.824219 553.738281 Z M 353.824219 553.738281 " fill-opacity="1" fill-rule="nonzero"/><path fill="#ecffff" d="M 673.425781 328.214844 C 689.421875 356.640625 673.628906 395.6875 657.714844 423.230469 C 646.082031 443.386719 619.644531 451.542969 595.03125 442.464844 C 506.730469 409.917969 434.5 373.8125 378.265625 340.996094 C 311.914062 303.328125 262.644531 263.460938 255.382812 257.601562 C 238.347656 243.871094 231.503906 222.441406 238.621094 204.289062 C 250.207031 174.667969 271.566406 143.21875 301.640625 138.0625 C 314.832031 135.796875 342.25 136.945312 373.554688 139.597656 C 472.492188 147.914062 566.886719 196.316406 631.109375 271.855469 C 649.59375 293.636719 665.484375 314.054688 673.425781 328.214844 Z M 673.425781 328.214844 " fill-opacity="1" fill-rule="nonzero"/><path fill="#1b72c1" d="M 673.882812 327.757812 C 665.945312 313.554688 650.046875 293.082031 631.554688 271.246094 C 567.308594 195.515625 472.800781 147.050781 373.691406 138.828125 C 342.332031 136.199219 314.867188 135.082031 301.648438 137.371094 C 271.511719 142.582031 250.078125 174.171875 238.433594 203.90625 C 233.441406 216.632812 235.28125 230.941406 242.632812 243.105469 C 239.679688 234.375 239.589844 225.164062 242.84375 216.769531 C 253.417969 189.4375 273.246094 160.542969 301.734375 156.191406 C 314.226562 154.28125 340.285156 155.746094 370.050781 158.667969 C 464.140625 167.824219 554.492188 214.144531 616.585938 285.21875 C 634.460938 305.714844 649.851562 324.902344 657.597656 338.167969 C 673.203125 364.796875 658.773438 400.820312 644.0625 426.167969 C 637.726562 437.089844 626.441406 444.03125 613.441406 446.132812 C 631.96875 446.816406 649.21875 438.402344 658.03125 423.132812 C 674.003906 395.46875 689.875 356.265625 673.882812 327.757812 Z M 673.882812 327.757812 " fill-opacity="1" fill-rule="nonzero"/><path fill="#256199" d="M 478.894531 351.847656 C 478.800781 351.847656 478.703125 351.847656 478.601562 351.839844 C 475.453125 351.675781 473.03125 348.988281 473.195312 345.839844 C 473.820312 333.90625 464.464844 325.371094 456.257812 321.6875 C 447.808594 317.898438 435.726562 316.878906 427.132812 325.355469 C 424.882812 327.570312 421.265625 327.546875 419.054688 325.304688 C 416.835938 323.058594 416.859375 319.445312 419.105469 317.230469 C 429.734375 306.746094 445.773438 304.46875 460.9375 311.273438 C 476.082031 318.070312 485.371094 331.875 484.609375 346.4375 C 484.449219 349.488281 481.917969 351.855469 478.894531 351.847656 Z M 478.894531 351.847656 " fill-opacity="1" fill-rule="nonzero"/><path fill="#256199" d="M 314.738281 244.835938 C 312.445312 244.832031 310.285156 243.4375 309.414062 241.167969 C 308.285156 238.226562 309.757812 234.925781 312.699219 233.792969 L 365.007812 213.734375 C 367.957031 212.613281 371.257812 214.074219 372.390625 217.019531 C 373.519531 219.964844 372.046875 223.265625 369.105469 224.394531 L 316.792969 244.453125 C 316.117188 244.710938 315.421875 244.835938 314.738281 244.835938 Z M 314.738281 244.835938 " fill-opacity="1" fill-rule="nonzero"/><path fill="#256199" d="M 350.929688 260.9375 C 348.636719 260.933594 346.476562 259.542969 345.605469 257.273438 L 325.53125 205.003906 C 324.402344 202.0625 325.875 198.757812 328.816406 197.628906 C 331.761719 196.503906 335.070312 197.96875 336.199219 200.914062 L 356.273438 253.183594 C 357.402344 256.125 355.929688 259.429688 352.984375 260.558594 C 352.308594 260.816406 351.613281 260.941406 350.929688 260.9375 Z M 350.929688 260.9375 " fill-opacity="1" fill-rule="nonzero"/><path fill="#256199" d="M 557.769531 352.984375 C 555.476562 352.980469 553.316406 351.589844 552.445312 349.320312 C 551.316406 346.378906 552.789062 343.074219 555.730469 341.945312 L 608.035156 321.886719 C 610.984375 320.765625 614.289062 322.226562 615.417969 325.171875 C 616.546875 328.113281 615.074219 331.417969 612.132812 332.546875 L 559.824219 352.605469 C 559.148438 352.863281 558.453125 352.988281 557.769531 352.984375 Z M 557.769531 352.984375 " fill-opacity="1" fill-rule="nonzero"/><path fill="#256199" d="M 593.960938 369.09375 C 591.667969 369.089844 589.507812 367.695312 588.636719 365.425781 L 568.558594 313.15625 C 567.429688 310.214844 568.902344 306.914062 571.84375 305.78125 C 574.785156 304.660156 578.097656 306.125 579.226562 309.066406 L 599.304688 361.335938 C 600.433594 364.28125 598.960938 367.582031 596.015625 368.710938 C 595.339844 368.96875 594.644531 369.09375 593.960938 369.09375 Z M 593.960938 369.09375 " fill-opacity="1" fill-rule="nonzero"/><path fill="#0f5784" d="M 185.425781 388.976562 C 185.425781 388.976562 142.574219 433.65625 156.644531 490.746094 C 170.71875 547.835938 279.460938 582.464844 279.460938 582.464844 C 279.460938 582.464844 255.933594 526.859375 305.824219 463.824219 C 305.824219 463.824219 231.878906 427.867188 185.425781 388.976562 Z M 185.425781 388.976562 " fill-opacity="1" fill-rule="nonzero"/><path fill="#2492dd" d="M 212.652344 482.625 C 215.144531 483.363281 217.683594 483.804688 220.234375 483.960938 C 226.808594 484.363281 233.410156 482.890625 239.1875 479.726562 C 241.425781 478.503906 243.539062 477.019531 245.476562 475.296875 C 247.898438 473.183594 250.046875 470.6875 251.851562 467.84375 C 253.65625 465 255.003906 461.996094 255.886719 458.90625 C 256.625 456.421875 257.070312 453.878906 257.222656 451.332031 C 257.625 444.761719 256.152344 438.167969 252.988281 432.394531 C 251.761719 430.15625 250.277344 428.046875 248.550781 426.109375 C 246.4375 423.6875 243.941406 421.542969 241.09375 419.738281 C 238.25 417.933594 235.242188 416.589844 232.152344 415.707031 C 229.664062 414.96875 227.121094 414.527344 224.570312 414.371094 C 217.996094 413.96875 211.398438 415.441406 205.625 418.621094 C 203.382812 419.84375 201.277344 421.316406 199.339844 423.042969 C 196.917969 425.15625 194.773438 427.652344 192.964844 430.496094 C 191.160156 433.339844 189.8125 436.339844 188.929688 439.429688 C 188.191406 441.917969 187.753906 444.449219 187.601562 446.996094 C 187.179688 453.570312 188.65625 460.164062 191.820312 465.9375 C 193.042969 468.175781 194.527344 470.285156 196.253906 472.222656 C 198.371094 474.644531 200.867188 476.789062 203.710938 478.59375 C 206.558594 480.398438 209.5625 481.742188 212.652344 482.625 Z M 216.214844 458.910156 C 210.839844 455.5 209.234375 448.363281 212.652344 442.980469 C 216.074219 437.601562 223.214844 436.015625 228.589844 439.421875 C 233.976562 442.839844 235.570312 449.96875 232.152344 455.351562 C 228.734375 460.730469 221.601562 462.324219 216.214844 458.910156 Z M 216.214844 458.910156 " fill-opacity="1" fill-rule="nonzero"/><path fill="#2492dd" d="M 248.722656 420.796875 C 248.722656 421.265625 248.679688 421.730469 248.585938 422.1875 C 248.496094 422.648438 248.359375 423.09375 248.179688 423.527344 C 248 423.960938 247.78125 424.371094 247.519531 424.761719 C 247.261719 425.148438 246.964844 425.511719 246.632812 425.84375 C 246.300781 426.171875 245.941406 426.46875 245.550781 426.730469 C 245.160156 426.988281 244.75 427.210938 244.316406 427.390625 C 243.882812 427.566406 243.4375 427.703125 242.976562 427.796875 C 242.515625 427.886719 242.050781 427.933594 241.582031 427.933594 C 241.113281 427.933594 240.648438 427.886719 240.1875 427.796875 C 239.730469 427.703125 239.28125 427.566406 238.847656 427.390625 C 238.417969 427.210938 238.003906 426.988281 237.613281 426.730469 C 237.226562 426.46875 236.863281 426.171875 236.53125 425.84375 C 236.199219 425.511719 235.90625 425.148438 235.644531 424.761719 C 235.382812 424.371094 235.164062 423.960938 234.984375 423.527344 C 234.804688 423.09375 234.667969 422.648438 234.578125 422.1875 C 234.488281 421.730469 234.441406 421.265625 234.441406 420.796875 C 234.441406 420.328125 234.488281 419.863281 234.578125 419.402344 C 234.667969 418.945312 234.804688 418.496094 234.984375 418.066406 C 235.164062 417.632812 235.382812 417.222656 235.644531 416.832031 C 235.90625 416.441406 236.203125 416.082031 236.53125 415.75 C 236.863281 415.417969 237.226562 415.121094 237.613281 414.863281 C 238.003906 414.601562 238.417969 414.382812 238.847656 414.203125 C 239.28125 414.023438 239.730469 413.886719 240.1875 413.796875 C 240.648438 413.707031 241.113281 413.660156 241.582031 413.660156 C 242.050781 413.660156 242.515625 413.707031 242.976562 413.796875 C 243.4375 413.886719 243.882812 414.023438 244.316406 414.203125 C 244.75 414.382812 245.160156 414.601562 245.550781 414.863281 C 245.941406 415.121094 246.300781 415.417969 246.632812 415.75 C 246.964844 416.082031 247.261719 416.441406 247.519531 416.832031 C 247.78125 417.222656 248 417.632812 248.179688 418.066406 C 248.359375 418.496094 248.496094 418.945312 248.585938 419.402344 C 248.679688 419.863281 248.722656 420.328125 248.722656 420.796875 Z M 248.722656 420.796875 " fill-opacity="1" fill-rule="nonzero"/><path fill="#2492dd" d="M 201.367188 430.289062 C 201.367188 430.757812 201.320312 431.222656 201.230469 431.683594 C 201.136719 432.140625 201.003906 432.589844 200.824219 433.019531 C 200.644531 433.453125 200.421875 433.867188 200.164062 434.253906 C 199.902344 434.644531 199.605469 435.003906 199.273438 435.335938 C 198.941406 435.667969 198.582031 435.964844 198.191406 436.222656 C 197.800781 436.484375 197.390625 436.703125 196.957031 436.882812 C 196.523438 437.0625 196.078125 437.199219 195.617188 437.289062 C 195.15625 437.378906 194.695312 437.425781 194.226562 437.425781 C 193.753906 437.425781 193.292969 437.378906 192.832031 437.289062 C 192.371094 437.199219 191.925781 437.0625 191.492188 436.882812 C 191.058594 436.703125 190.648438 436.484375 190.257812 436.222656 C 189.867188 435.964844 189.507812 435.667969 189.175781 435.335938 C 188.84375 435.003906 188.546875 434.644531 188.285156 434.253906 C 188.027344 433.867188 187.804688 433.453125 187.628906 433.019531 C 187.449219 432.589844 187.3125 432.140625 187.21875 431.683594 C 187.128906 431.222656 187.082031 430.757812 187.082031 430.289062 C 187.082031 429.820312 187.128906 429.359375 187.21875 428.898438 C 187.3125 428.4375 187.449219 427.992188 187.625 427.558594 C 187.804688 427.125 188.027344 426.714844 188.285156 426.324219 C 188.546875 425.9375 188.84375 425.574219 189.175781 425.246094 C 189.507812 424.914062 189.867188 424.617188 190.257812 424.355469 C 190.648438 424.097656 191.058594 423.875 191.492188 423.695312 C 191.925781 423.519531 192.371094 423.382812 192.832031 423.292969 C 193.292969 423.199219 193.753906 423.152344 194.226562 423.152344 C 194.695312 423.152344 195.15625 423.199219 195.617188 423.292969 C 196.078125 423.382812 196.523438 423.519531 196.957031 423.695312 C 197.390625 423.875 197.800781 424.097656 198.191406 424.355469 C 198.582031 424.617188 198.941406 424.914062 199.273438 425.246094 C 199.605469 425.574219 199.902344 425.9375 200.164062 426.324219 C 200.421875 426.714844 200.644531 427.125 200.824219 427.558594 C 201.003906 427.992188 201.136719 428.4375 201.230469 428.898438 C 201.320312 429.359375 201.367188 429.820312 201.367188 430.289062 Z M 201.367188 430.289062 " fill-opacity="1" fill-rule="nonzero"/><path fill="#2492dd" d="M 223.078125 415.742188 C 223.078125 416.210938 223.03125 416.675781 222.941406 417.132812 C 222.847656 417.59375 222.714844 418.039062 222.535156 418.472656 C 222.355469 418.90625 222.132812 419.316406 221.875 419.707031 C 221.613281 420.097656 221.316406 420.457031 220.984375 420.789062 C 220.652344 421.117188 220.292969 421.414062 219.902344 421.675781 C 219.511719 421.933594 219.101562 422.15625 218.667969 422.335938 C 218.234375 422.515625 217.789062 422.648438 217.328125 422.742188 C 216.867188 422.832031 216.40625 422.878906 215.9375 422.878906 C 215.46875 422.878906 215.003906 422.832031 214.542969 422.742188 C 214.082031 422.648438 213.636719 422.515625 213.203125 422.335938 C 212.769531 422.15625 212.359375 421.933594 211.96875 421.675781 C 211.578125 421.414062 211.21875 421.117188 210.886719 420.789062 C 210.554688 420.457031 210.257812 420.097656 209.996094 419.707031 C 209.738281 419.316406 209.515625 418.90625 209.335938 418.472656 C 209.160156 418.039062 209.023438 417.59375 208.929688 417.132812 C 208.839844 416.675781 208.792969 416.210938 208.792969 415.742188 C 208.792969 415.273438 208.839844 414.808594 208.929688 414.347656 C 209.023438 413.890625 209.160156 413.445312 209.335938 413.011719 C 209.515625 412.578125 209.738281 412.167969 209.996094 411.777344 C 210.257812 411.386719 210.554688 411.027344 210.886719 410.695312 C 211.21875 410.363281 211.578125 410.066406 211.96875 409.808594 C 212.359375 409.546875 212.769531 409.328125 213.203125 409.148438 C 213.636719 408.96875 214.082031 408.832031 214.542969 408.742188 C 215.003906 408.652344 215.46875 408.605469 215.9375 408.605469 C 216.40625 408.605469 216.867188 408.652344 217.328125 408.742188 C 217.789062 408.832031 218.234375 408.96875 218.667969 409.148438 C 219.101562 409.328125 219.511719 409.546875 219.902344 409.808594 C 220.292969 410.066406 220.652344 410.363281 220.984375 410.695312 C 221.316406 411.027344 221.613281 411.386719 221.875 411.777344 C 222.132812 412.167969 222.355469 412.578125 222.535156 413.011719 C 222.714844 413.445312 222.847656 413.890625 222.941406 414.347656 C 223.03125 414.808594 223.078125 415.273438 223.078125 415.742188 Z M 223.078125 415.742188 " fill-opacity="1" fill-rule="nonzero"/><path fill="#2492dd" d="M 196.308594 455.917969 C 196.308594 456.386719 196.265625 456.851562 196.171875 457.3125 C 196.082031 457.769531 195.945312 458.214844 195.765625 458.648438 C 195.585938 459.082031 195.367188 459.492188 195.105469 459.882812 C 194.847656 460.273438 194.550781 460.632812 194.21875 460.964844 C 193.886719 461.296875 193.527344 461.589844 193.136719 461.851562 C 192.746094 462.113281 192.335938 462.332031 191.902344 462.511719 C 191.46875 462.691406 191.023438 462.828125 190.5625 462.917969 C 190.101562 463.007812 189.636719 463.054688 189.167969 463.054688 C 188.699219 463.054688 188.234375 463.007812 187.777344 462.917969 C 187.316406 462.828125 186.871094 462.691406 186.4375 462.511719 C 186.003906 462.332031 185.589844 462.113281 185.203125 461.851562 C 184.8125 461.589844 184.449219 461.296875 184.117188 460.964844 C 183.789062 460.632812 183.492188 460.273438 183.230469 459.882812 C 182.96875 459.492188 182.75 459.082031 182.570312 458.648438 C 182.390625 458.214844 182.257812 457.769531 182.164062 457.3125 C 182.074219 456.851562 182.027344 456.386719 182.027344 455.917969 C 182.027344 455.449219 182.074219 454.984375 182.164062 454.527344 C 182.257812 454.066406 182.390625 453.621094 182.570312 453.1875 C 182.75 452.753906 182.96875 452.34375 183.230469 451.953125 C 183.492188 451.5625 183.789062 451.203125 184.117188 450.871094 C 184.449219 450.542969 184.8125 450.246094 185.203125 449.984375 C 185.589844 449.722656 186.003906 449.503906 186.4375 449.324219 C 186.871094 449.144531 187.316406 449.011719 187.777344 448.917969 C 188.234375 448.828125 188.699219 448.78125 189.167969 448.78125 C 189.636719 448.78125 190.101562 448.828125 190.5625 448.917969 C 191.023438 449.011719 191.46875 449.144531 191.902344 449.324219 C 192.335938 449.503906 192.746094 449.722656 193.136719 449.984375 C 193.527344 450.246094 193.886719 450.542969 194.21875 450.871094 C 194.550781 451.203125 194.847656 451.5625 195.105469 451.953125 C 195.367188 452.34375 195.585938 452.753906 195.765625 453.1875 C 195.945312 453.621094 196.082031 454.066406 196.171875 454.527344 C 196.265625 454.984375 196.308594 455.449219 196.308594 455.917969 Z M 196.308594 455.917969 " fill-opacity="1" fill-rule="nonzero"/><path fill="#2492dd" d="M 236.515625 482.667969 C 236.515625 483.132812 236.46875 483.597656 236.378906 484.058594 C 236.289062 484.519531 236.152344 484.964844 235.972656 485.398438 C 235.792969 485.828125 235.574219 486.242188 235.3125 486.628906 C 235.050781 487.019531 234.757812 487.378906 234.425781 487.710938 C 234.09375 488.042969 233.730469 488.339844 233.34375 488.597656 C 232.953125 488.859375 232.539062 489.078125 232.109375 489.257812 C 231.675781 489.4375 231.226562 489.574219 230.769531 489.664062 C 230.308594 489.757812 229.84375 489.800781 229.375 489.800781 C 228.90625 489.800781 228.441406 489.757812 227.980469 489.664062 C 227.523438 489.574219 227.074219 489.4375 226.640625 489.257812 C 226.207031 489.078125 225.796875 488.859375 225.40625 488.597656 C 225.015625 488.339844 224.65625 488.042969 224.324219 487.710938 C 223.992188 487.378906 223.699219 487.019531 223.4375 486.628906 C 223.175781 486.242188 222.957031 485.828125 222.777344 485.398438 C 222.597656 484.964844 222.460938 484.519531 222.371094 484.058594 C 222.277344 483.597656 222.234375 483.132812 222.234375 482.667969 C 222.234375 482.199219 222.277344 481.734375 222.371094 481.273438 C 222.460938 480.8125 222.597656 480.367188 222.777344 479.933594 C 222.957031 479.503906 223.175781 479.089844 223.4375 478.703125 C 223.699219 478.3125 223.992188 477.953125 224.324219 477.621094 C 224.65625 477.289062 225.015625 476.992188 225.40625 476.734375 C 225.796875 476.472656 226.207031 476.253906 226.640625 476.074219 C 227.074219 475.894531 227.523438 475.757812 227.980469 475.667969 C 228.441406 475.574219 228.90625 475.53125 229.375 475.53125 C 229.84375 475.53125 230.308594 475.574219 230.769531 475.667969 C 231.226562 475.757812 231.675781 475.894531 232.109375 476.074219 C 232.539062 476.253906 232.953125 476.472656 233.34375 476.730469 C 233.730469 476.992188 234.09375 477.289062 234.425781 477.621094 C 234.757812 477.953125 235.050781 478.3125 235.3125 478.703125 C 235.574219 479.089844 235.792969 479.503906 235.972656 479.933594 C 236.152344 480.367188 236.289062 480.8125 236.378906 481.273438 C 236.46875 481.734375 236.515625 482.199219 236.515625 482.667969 Z M 236.515625 482.667969 " fill-opacity="1" fill-rule="nonzero"/><path fill="#2492dd" d="M 210.871094 477.613281 C 210.871094 478.082031 210.824219 478.546875 210.730469 479.007812 C 210.640625 479.464844 210.503906 479.910156 210.324219 480.34375 C 210.144531 480.777344 209.925781 481.1875 209.664062 481.578125 C 209.40625 481.96875 209.109375 482.328125 208.777344 482.660156 C 208.445312 482.992188 208.085938 483.285156 207.695312 483.546875 C 207.304688 483.808594 206.894531 484.027344 206.460938 484.207031 C 206.027344 484.386719 205.582031 484.523438 205.121094 484.613281 C 204.660156 484.703125 204.195312 484.75 203.726562 484.75 C 203.257812 484.75 202.792969 484.703125 202.335938 484.613281 C 201.875 484.523438 201.429688 484.386719 200.996094 484.207031 C 200.5625 484.027344 200.148438 483.808594 199.761719 483.546875 C 199.371094 483.285156 199.011719 482.992188 198.679688 482.660156 C 198.347656 482.328125 198.050781 481.96875 197.789062 481.578125 C 197.53125 481.1875 197.308594 480.777344 197.128906 480.34375 C 196.949219 479.910156 196.816406 479.464844 196.722656 479.007812 C 196.632812 478.546875 196.585938 478.082031 196.585938 477.613281 C 196.585938 477.144531 196.632812 476.679688 196.722656 476.222656 C 196.816406 475.761719 196.949219 475.316406 197.128906 474.882812 C 197.308594 474.449219 197.53125 474.039062 197.789062 473.648438 C 198.050781 473.257812 198.347656 472.898438 198.679688 472.566406 C 199.011719 472.234375 199.371094 471.941406 199.761719 471.679688 C 200.148438 471.417969 200.5625 471.199219 200.996094 471.019531 C 201.429688 470.839844 201.875 470.707031 202.335938 470.613281 C 202.792969 470.523438 203.257812 470.476562 203.726562 470.476562 C 204.195312 470.476562 204.660156 470.523438 205.121094 470.613281 C 205.582031 470.707031 206.027344 470.839844 206.460938 471.019531 C 206.894531 471.199219 207.304688 471.417969 207.695312 471.679688 C 208.085938 471.941406 208.445312 472.234375 208.777344 472.566406 C 209.109375 472.898438 209.40625 473.257812 209.664062 473.648438 C 209.925781 474.039062 210.144531 474.449219 210.324219 474.882812 C 210.503906 475.316406 210.640625 475.761719 210.730469 476.222656 C 210.824219 476.679688 210.871094 477.144531 210.871094 477.613281 Z M 210.871094 477.613281 " fill-opacity="1" fill-rule="nonzero"/><path fill="#2492dd" d="M 258.226562 468.117188 C 258.226562 468.585938 258.179688 469.050781 258.089844 469.507812 C 258 469.96875 257.863281 470.414062 257.683594 470.847656 C 257.503906 471.28125 257.285156 471.691406 257.023438 472.082031 C 256.761719 472.472656 256.46875 472.832031 256.136719 473.164062 C 255.804688 473.496094 255.441406 473.789062 255.054688 474.050781 C 254.664062 474.3125 254.25 474.53125 253.820312 474.710938 C 253.386719 474.890625 252.9375 475.023438 252.480469 475.117188 C 252.019531 475.207031 251.554688 475.253906 251.085938 475.253906 C 250.617188 475.253906 250.152344 475.207031 249.691406 475.117188 C 249.234375 475.023438 248.785156 474.890625 248.351562 474.710938 C 247.917969 474.53125 247.507812 474.3125 247.117188 474.050781 C 246.726562 473.789062 246.367188 473.496094 246.035156 473.164062 C 245.703125 472.832031 245.410156 472.472656 245.148438 472.082031 C 244.886719 471.691406 244.667969 471.28125 244.488281 470.847656 C 244.308594 470.414062 244.171875 469.96875 244.082031 469.507812 C 243.988281 469.050781 243.945312 468.585938 243.945312 468.117188 C 243.945312 467.648438 243.988281 467.183594 244.082031 466.726562 C 244.171875 466.265625 244.308594 465.820312 244.488281 465.386719 C 244.667969 464.953125 244.886719 464.542969 245.148438 464.152344 C 245.410156 463.761719 245.703125 463.402344 246.035156 463.070312 C 246.367188 462.738281 246.726562 462.445312 247.117188 462.183594 C 247.507812 461.921875 247.917969 461.703125 248.351562 461.523438 C 248.785156 461.34375 249.234375 461.210938 249.691406 461.117188 C 250.152344 461.027344 250.617188 460.980469 251.085938 460.980469 C 251.554688 460.980469 252.019531 461.027344 252.480469 461.117188 C 252.9375 461.210938 253.386719 461.34375 253.820312 461.523438 C 254.25 461.703125 254.664062 461.921875 255.054688 462.183594 C 255.441406 462.445312 255.804688 462.738281 256.136719 463.070312 C 256.46875 463.402344 256.761719 463.761719 257.023438 464.152344 C 257.285156 464.542969 257.503906 464.953125 257.683594 465.386719 C 257.863281 465.820312 258 466.265625 258.089844 466.726562 C 258.179688 467.183594 258.226562 467.648438 258.226562 468.117188 Z M 258.226562 468.117188 " fill-opacity="1" fill-rule="nonzero"/><path fill="#2492dd" d="M 263.28125 442.488281 C 263.28125 442.957031 263.238281 443.421875 263.144531 443.882812 C 263.054688 444.339844 262.917969 444.785156 262.738281 445.21875 C 262.558594 445.652344 262.339844 446.0625 262.078125 446.453125 C 261.820312 446.84375 261.523438 447.203125 261.191406 447.535156 C 260.859375 447.867188 260.5 448.164062 260.109375 448.421875 C 259.71875 448.683594 259.308594 448.902344 258.875 449.082031 C 258.441406 449.261719 257.996094 449.398438 257.535156 449.488281 C 257.074219 449.578125 256.609375 449.625 256.140625 449.625 C 255.671875 449.625 255.207031 449.578125 254.75 449.488281 C 254.289062 449.398438 253.84375 449.261719 253.410156 449.082031 C 252.976562 448.902344 252.5625 448.683594 252.175781 448.421875 C 251.785156 448.164062 251.421875 447.867188 251.09375 447.535156 C 250.761719 447.203125 250.464844 446.84375 250.203125 446.453125 C 249.941406 446.0625 249.722656 445.652344 249.542969 445.21875 C 249.363281 444.785156 249.230469 444.339844 249.136719 443.882812 C 249.046875 443.421875 249 442.957031 249 442.488281 C 249 442.019531 249.046875 441.554688 249.136719 441.097656 C 249.230469 440.636719 249.363281 440.191406 249.542969 439.757812 C 249.722656 439.324219 249.941406 438.914062 250.203125 438.523438 C 250.464844 438.136719 250.761719 437.773438 251.09375 437.441406 C 251.421875 437.113281 251.785156 436.816406 252.175781 436.554688 C 252.5625 436.296875 252.976562 436.074219 253.410156 435.894531 C 253.84375 435.714844 254.289062 435.582031 254.75 435.488281 C 255.207031 435.398438 255.671875 435.351562 256.140625 435.351562 C 256.609375 435.351562 257.074219 435.398438 257.535156 435.488281 C 257.996094 435.582031 258.441406 435.714844 258.875 435.894531 C 259.308594 436.074219 259.71875 436.296875 260.109375 436.554688 C 260.5 436.816406 260.859375 437.113281 261.191406 437.441406 C 261.523438 437.773438 261.820312 438.136719 262.078125 438.523438 C 262.339844 438.914062 262.558594 439.324219 262.738281 439.757812 C 262.917969 440.191406 263.054688 440.636719 263.144531 441.097656 C 263.238281 441.554688 263.28125 442.019531 263.28125 442.488281 Z M 263.28125 442.488281 " fill-opacity="1" fill-rule="nonzero"/><path fill="#2492dd" d="M 206.304688 538.816406 C 207.972656 539.523438 209.695312 540.035156 211.449219 540.347656 C 215.972656 541.152344 220.664062 540.660156 224.917969 538.933594 C 226.570312 538.265625 228.152344 537.40625 229.632812 536.367188 C 231.480469 535.09375 233.167969 533.539062 234.644531 531.714844 C 236.125 529.886719 237.296875 527.914062 238.15625 525.84375 C 238.867188 524.179688 239.378906 522.457031 239.691406 520.707031 C 240.496094 516.1875 240.003906 511.5 238.277344 507.246094 C 237.605469 505.597656 236.746094 504.015625 235.707031 502.535156 C 234.433594 500.691406 232.878906 499.003906 231.050781 497.527344 C 229.222656 496.046875 227.25 494.875 225.179688 494.015625 C 223.515625 493.308594 221.789062 492.796875 220.035156 492.484375 C 215.511719 491.679688 210.824219 492.171875 206.566406 493.910156 C 204.917969 494.578125 203.339844 495.433594 201.859375 496.472656 C 200.011719 497.742188 198.324219 499.296875 196.847656 501.125 C 195.367188 502.949219 194.195312 504.921875 193.335938 506.992188 C 192.625 508.65625 192.117188 510.371094 191.808594 512.125 C 190.988281 516.644531 191.480469 521.332031 193.210938 525.585938 C 193.878906 527.234375 194.738281 528.816406 195.777344 530.296875 C 197.050781 532.140625 198.609375 533.828125 200.433594 535.304688 C 202.261719 536.785156 204.234375 537.957031 206.304688 538.816406 Z M 210.675781 522.667969 C 207.222656 519.878906 206.683594 514.804688 209.484375 511.351562 C 212.285156 507.898438 217.359375 507.371094 220.8125 510.160156 C 224.269531 512.960938 224.800781 518.027344 222 521.480469 C 219.199219 524.933594 214.132812 525.46875 210.675781 522.667969 Z M 210.675781 522.667969 " fill-opacity="1" fill-rule="nonzero"/><path fill="#2492dd" d="M 236.285156 498.296875 C 236.285156 498.625 236.253906 498.949219 236.191406 499.269531 C 236.125 499.589844 236.03125 499.898438 235.90625 500.203125 C 235.78125 500.503906 235.628906 500.789062 235.445312 501.0625 C 235.265625 501.335938 235.058594 501.585938 234.824219 501.816406 C 234.59375 502.046875 234.34375 502.253906 234.070312 502.4375 C 233.800781 502.617188 233.511719 502.769531 233.210938 502.894531 C 232.90625 503.019531 232.597656 503.117188 232.277344 503.179688 C 231.953125 503.242188 231.628906 503.273438 231.304688 503.273438 C 230.976562 503.273438 230.652344 503.242188 230.332031 503.179688 C 230.011719 503.117188 229.699219 503.019531 229.398438 502.894531 C 229.09375 502.769531 228.808594 502.617188 228.535156 502.4375 C 228.265625 502.253906 228.011719 502.046875 227.78125 501.816406 C 227.550781 501.585938 227.34375 501.335938 227.160156 501.0625 C 226.980469 500.789062 226.828125 500.503906 226.699219 500.203125 C 226.574219 499.898438 226.480469 499.589844 226.417969 499.269531 C 226.355469 498.949219 226.320312 498.625 226.320312 498.296875 C 226.320312 497.96875 226.355469 497.644531 226.417969 497.324219 C 226.480469 497.003906 226.574219 496.695312 226.699219 496.390625 C 226.828125 496.089844 226.980469 495.804688 227.160156 495.53125 C 227.34375 495.257812 227.550781 495.007812 227.78125 494.777344 C 228.011719 494.546875 228.265625 494.339844 228.535156 494.15625 C 228.808594 493.976562 229.09375 493.824219 229.398438 493.699219 C 229.699219 493.574219 230.011719 493.476562 230.332031 493.414062 C 230.652344 493.351562 230.976562 493.320312 231.304688 493.320312 C 231.628906 493.320312 231.953125 493.351562 232.277344 493.414062 C 232.597656 493.476562 232.90625 493.574219 233.210938 493.699219 C 233.511719 493.824219 233.800781 493.976562 234.070312 494.15625 C 234.34375 494.339844 234.59375 494.546875 234.824219 494.777344 C 235.058594 495.007812 235.265625 495.257812 235.445312 495.53125 C 235.628906 495.804688 235.78125 496.089844 235.90625 496.390625 C 236.03125 496.695312 236.125 497.003906 236.191406 497.324219 C 236.253906 497.644531 236.285156 497.96875 236.285156 498.296875 Z M 236.285156 498.296875 " fill-opacity="1" fill-rule="nonzero"/><path fill="#2492dd" d="M 202.71875 501.082031 C 202.71875 501.410156 202.683594 501.734375 202.621094 502.054688 C 202.558594 502.375 202.464844 502.6875 202.339844 502.988281 C 202.214844 503.289062 202.058594 503.578125 201.878906 503.847656 C 201.695312 504.121094 201.488281 504.371094 201.257812 504.605469 C 201.027344 504.835938 200.773438 505.042969 200.503906 505.222656 C 200.230469 505.40625 199.945312 505.558594 199.640625 505.683594 C 199.339844 505.808594 199.027344 505.902344 198.707031 505.964844 C 198.386719 506.03125 198.0625 506.0625 197.734375 506.0625 C 197.410156 506.0625 197.085938 506.03125 196.765625 505.964844 C 196.441406 505.902344 196.132812 505.808594 195.828125 505.683594 C 195.527344 505.558594 195.238281 505.402344 194.96875 505.222656 C 194.695312 505.042969 194.445312 504.835938 194.214844 504.605469 C 193.980469 504.371094 193.773438 504.121094 193.59375 503.847656 C 193.410156 503.578125 193.257812 503.289062 193.132812 502.988281 C 193.007812 502.6875 192.914062 502.375 192.851562 502.054688 C 192.785156 501.734375 192.753906 501.410156 192.753906 501.082031 C 192.753906 500.757812 192.785156 500.433594 192.851562 500.113281 C 192.914062 499.792969 193.007812 499.480469 193.132812 499.179688 C 193.257812 498.875 193.410156 498.589844 193.59375 498.316406 C 193.773438 498.046875 193.980469 497.792969 194.214844 497.5625 C 194.445312 497.332031 194.695312 497.125 194.96875 496.945312 C 195.238281 496.761719 195.527344 496.609375 195.828125 496.484375 C 196.132812 496.359375 196.441406 496.265625 196.765625 496.203125 C 197.085938 496.136719 197.410156 496.105469 197.734375 496.105469 C 198.0625 496.105469 198.386719 496.136719 198.707031 496.203125 C 199.027344 496.265625 199.339844 496.359375 199.640625 496.484375 C 199.945312 496.609375 200.230469 496.761719 200.503906 496.945312 C 200.773438 497.125 201.027344 497.332031 201.257812 497.5625 C 201.488281 497.792969 201.695312 498.046875 201.878906 498.316406 C 202.058594 498.589844 202.214844 498.875 202.339844 499.179688 C 202.464844 499.480469 202.558594 499.792969 202.621094 500.113281 C 202.683594 500.433594 202.71875 500.757812 202.71875 501.082031 Z M 202.71875 501.082031 " fill-opacity="1" fill-rule="nonzero"/><path fill="#2492dd" d="M 218.921875 492.742188 C 218.921875 493.070312 218.890625 493.394531 218.828125 493.714844 C 218.761719 494.035156 218.667969 494.347656 218.542969 494.648438 C 218.417969 494.949219 218.265625 495.238281 218.082031 495.507812 C 217.902344 495.78125 217.695312 496.03125 217.464844 496.265625 C 217.230469 496.496094 216.980469 496.699219 216.707031 496.882812 C 216.4375 497.0625 216.148438 497.21875 215.847656 497.34375 C 215.546875 497.46875 215.234375 497.5625 214.914062 497.625 C 214.59375 497.691406 214.269531 497.722656 213.941406 497.722656 C 213.613281 497.722656 213.289062 497.691406 212.96875 497.625 C 212.648438 497.5625 212.335938 497.46875 212.035156 497.34375 C 211.730469 497.21875 211.445312 497.0625 211.171875 496.882812 C 210.902344 496.699219 210.648438 496.496094 210.417969 496.261719 C 210.1875 496.03125 209.980469 495.78125 209.800781 495.507812 C 209.617188 495.238281 209.464844 494.949219 209.339844 494.648438 C 209.214844 494.347656 209.117188 494.035156 209.054688 493.714844 C 208.992188 493.394531 208.960938 493.070312 208.960938 492.742188 C 208.960938 492.417969 208.992188 492.09375 209.054688 491.773438 C 209.117188 491.453125 209.214844 491.140625 209.339844 490.839844 C 209.464844 490.535156 209.617188 490.25 209.800781 489.976562 C 209.980469 489.707031 210.1875 489.453125 210.417969 489.222656 C 210.648438 488.992188 210.902344 488.785156 211.171875 488.605469 C 211.445312 488.421875 211.730469 488.269531 212.035156 488.144531 C 212.335938 488.019531 212.648438 487.925781 212.96875 487.859375 C 213.289062 487.796875 213.613281 487.765625 213.941406 487.765625 C 214.269531 487.765625 214.59375 487.796875 214.914062 487.859375 C 215.234375 487.925781 215.546875 488.019531 215.847656 488.144531 C 216.148438 488.269531 216.4375 488.421875 216.707031 488.605469 C 216.980469 488.785156 217.230469 488.992188 217.464844 489.222656 C 217.695312 489.453125 217.902344 489.707031 218.082031 489.976562 C 218.265625 490.25 218.417969 490.535156 218.542969 490.839844 C 218.667969 491.140625 218.761719 491.453125 218.828125 491.773438 C 218.890625 492.09375 218.921875 492.417969 218.921875 492.742188 Z M 218.921875 492.742188 " fill-opacity="1" fill-rule="nonzero"/><path fill="#2492dd" d="M 197.15625 518.433594 C 197.15625 518.761719 197.125 519.085938 197.0625 519.40625 C 197 519.726562 196.902344 520.035156 196.777344 520.339844 C 196.652344 520.640625 196.5 520.925781 196.320312 521.199219 C 196.136719 521.472656 195.929688 521.722656 195.699219 521.953125 C 195.46875 522.183594 195.214844 522.390625 194.945312 522.574219 C 194.671875 522.753906 194.386719 522.90625 194.082031 523.03125 C 193.78125 523.15625 193.46875 523.253906 193.148438 523.316406 C 192.828125 523.378906 192.503906 523.410156 192.175781 523.410156 C 191.847656 523.410156 191.523438 523.378906 191.203125 523.316406 C 190.882812 523.253906 190.570312 523.15625 190.269531 523.03125 C 189.96875 522.90625 189.679688 522.753906 189.410156 522.574219 C 189.136719 522.390625 188.886719 522.183594 188.652344 521.953125 C 188.421875 521.722656 188.214844 521.472656 188.035156 521.199219 C 187.851562 520.925781 187.699219 520.640625 187.574219 520.339844 C 187.449219 520.035156 187.355469 519.726562 187.289062 519.40625 C 187.226562 519.085938 187.195312 518.761719 187.195312 518.433594 C 187.195312 518.105469 187.226562 517.78125 187.289062 517.460938 C 187.355469 517.140625 187.449219 516.832031 187.574219 516.527344 C 187.699219 516.226562 187.851562 515.941406 188.035156 515.667969 C 188.214844 515.394531 188.421875 515.144531 188.652344 514.914062 C 188.886719 514.683594 189.136719 514.476562 189.410156 514.292969 C 189.679688 514.113281 189.96875 513.960938 190.269531 513.835938 C 190.570312 513.710938 190.882812 513.613281 191.203125 513.550781 C 191.523438 513.488281 191.847656 513.457031 192.175781 513.457031 C 192.503906 513.457031 192.828125 513.488281 193.148438 513.550781 C 193.46875 513.613281 193.78125 513.710938 194.082031 513.835938 C 194.386719 513.960938 194.671875 514.113281 194.945312 514.292969 C 195.214844 514.476562 195.46875 514.683594 195.699219 514.914062 C 195.929688 515.144531 196.136719 515.394531 196.320312 515.667969 C 196.5 515.941406 196.652344 516.226562 196.777344 516.527344 C 196.902344 516.832031 197 517.140625 197.0625 517.460938 C 197.125 517.78125 197.15625 518.105469 197.15625 518.433594 Z M 197.15625 518.433594 " fill-opacity="1" fill-rule="nonzero"/><path fill="#2492dd" d="M 222.867188 540.183594 C 222.867188 540.507812 222.835938 540.832031 222.773438 541.152344 C 222.710938 541.472656 222.613281 541.785156 222.488281 542.085938 C 222.363281 542.390625 222.210938 542.675781 222.027344 542.949219 C 221.847656 543.21875 221.640625 543.472656 221.410156 543.703125 C 221.179688 543.933594 220.925781 544.140625 220.65625 544.320312 C 220.382812 544.503906 220.09375 544.65625 219.792969 544.78125 C 219.492188 544.90625 219.179688 545 218.859375 545.066406 C 218.539062 545.128906 218.214844 545.160156 217.886719 545.160156 C 217.558594 545.160156 217.234375 545.128906 216.914062 545.066406 C 216.59375 545 216.28125 544.90625 215.980469 544.78125 C 215.679688 544.65625 215.390625 544.503906 215.121094 544.320312 C 214.847656 544.140625 214.597656 543.933594 214.363281 543.703125 C 214.132812 543.472656 213.925781 543.21875 213.746094 542.949219 C 213.5625 542.675781 213.410156 542.390625 213.285156 542.085938 C 213.160156 541.785156 213.066406 541.472656 213 541.152344 C 212.9375 540.832031 212.90625 540.507812 212.90625 540.183594 C 212.90625 539.855469 212.9375 539.53125 213 539.210938 C 213.066406 538.890625 213.160156 538.578125 213.285156 538.277344 C 213.410156 537.976562 213.5625 537.6875 213.746094 537.417969 C 213.925781 537.144531 214.132812 536.894531 214.363281 536.664062 C 214.597656 536.429688 214.847656 536.226562 215.121094 536.042969 C 215.390625 535.863281 215.679688 535.707031 215.980469 535.582031 C 216.28125 535.457031 216.59375 535.363281 216.914062 535.300781 C 217.234375 535.238281 217.558594 535.203125 217.886719 535.203125 C 218.214844 535.203125 218.539062 535.238281 218.859375 535.300781 C 219.179688 535.363281 219.492188 535.457031 219.792969 535.582031 C 220.097656 535.707031 220.382812 535.863281 220.65625 536.042969 C 220.925781 536.226562 221.179688 536.429688 221.410156 536.664062 C 221.640625 536.894531 221.847656 537.144531 222.027344 537.417969 C 222.210938 537.6875 222.363281 537.976562 222.488281 538.277344 C 222.613281 538.578125 222.710938 538.890625 222.773438 539.210938 C 222.835938 539.53125 222.867188 539.855469 222.867188 540.183594 Z M 222.867188 540.183594 " fill-opacity="1" fill-rule="nonzero"/><path fill="#2492dd" d="M 205.507812 534.628906 C 205.507812 534.953125 205.472656 535.277344 205.410156 535.597656 C 205.347656 535.917969 205.253906 536.230469 205.128906 536.53125 C 205 536.835938 204.847656 537.121094 204.667969 537.394531 C 204.484375 537.664062 204.277344 537.917969 204.046875 538.148438 C 203.816406 538.378906 203.5625 538.585938 203.292969 538.765625 C 203.019531 538.949219 202.734375 539.101562 202.429688 539.226562 C 202.128906 539.351562 201.816406 539.445312 201.496094 539.507812 C 201.175781 539.574219 200.851562 539.605469 200.523438 539.605469 C 200.199219 539.605469 199.875 539.574219 199.550781 539.507812 C 199.230469 539.445312 198.921875 539.351562 198.617188 539.226562 C 198.316406 539.101562 198.027344 538.949219 197.757812 538.765625 C 197.484375 538.585938 197.234375 538.378906 197.003906 538.148438 C 196.769531 537.917969 196.5625 537.664062 196.382812 537.394531 C 196.199219 537.121094 196.046875 536.835938 195.921875 536.53125 C 195.796875 536.230469 195.703125 535.917969 195.636719 535.597656 C 195.574219 535.277344 195.542969 534.953125 195.542969 534.628906 C 195.542969 534.300781 195.574219 533.976562 195.636719 533.65625 C 195.703125 533.335938 195.796875 533.023438 195.921875 532.722656 C 196.046875 532.421875 196.199219 532.132812 196.382812 531.863281 C 196.5625 531.589844 196.769531 531.339844 197.003906 531.105469 C 197.234375 530.875 197.484375 530.667969 197.757812 530.488281 C 198.027344 530.304688 198.316406 530.152344 198.617188 530.027344 C 198.921875 529.902344 199.230469 529.808594 199.550781 529.746094 C 199.875 529.679688 200.199219 529.648438 200.523438 529.648438 C 200.851562 529.648438 201.175781 529.679688 201.496094 529.746094 C 201.816406 529.808594 202.128906 529.902344 202.429688 530.027344 C 202.734375 530.152344 203.019531 530.304688 203.292969 530.488281 C 203.5625 530.667969 203.816406 530.875 204.046875 531.105469 C 204.277344 531.339844 204.484375 531.589844 204.667969 531.863281 C 204.847656 532.132812 205 532.421875 205.128906 532.722656 C 205.253906 533.023438 205.347656 533.335938 205.410156 533.65625 C 205.472656 533.976562 205.507812 534.300781 205.507812 534.628906 Z M 205.507812 534.628906 " fill-opacity="1" fill-rule="nonzero"/><path fill="#2492dd" d="M 239.074219 531.839844 C 239.074219 532.167969 239.042969 532.492188 238.976562 532.8125 C 238.914062 533.132812 238.820312 533.445312 238.695312 533.746094 C 238.570312 534.046875 238.417969 534.335938 238.234375 534.605469 C 238.054688 534.878906 237.847656 535.128906 237.613281 535.359375 C 237.382812 535.589844 237.132812 535.796875 236.859375 535.980469 C 236.589844 536.160156 236.300781 536.3125 236 536.441406 C 235.695312 536.566406 235.386719 536.660156 235.0625 536.722656 C 234.742188 536.785156 234.417969 536.820312 234.09375 536.820312 C 233.765625 536.820312 233.441406 536.785156 233.121094 536.722656 C 232.800781 536.660156 232.488281 536.566406 232.1875 536.441406 C 231.882812 536.3125 231.597656 536.160156 231.324219 535.980469 C 231.054688 535.796875 230.800781 535.589844 230.570312 535.359375 C 230.339844 535.128906 230.132812 534.878906 229.949219 534.605469 C 229.769531 534.335938 229.613281 534.046875 229.488281 533.746094 C 229.363281 533.445312 229.269531 533.132812 229.207031 532.8125 C 229.144531 532.492188 229.109375 532.167969 229.109375 531.839844 C 229.109375 531.515625 229.144531 531.191406 229.207031 530.871094 C 229.269531 530.546875 229.363281 530.238281 229.488281 529.933594 C 229.613281 529.632812 229.769531 529.347656 229.949219 529.074219 C 230.132812 528.804688 230.339844 528.550781 230.570312 528.320312 C 230.800781 528.089844 231.054688 527.882812 231.324219 527.703125 C 231.597656 527.519531 231.882812 527.367188 232.1875 527.242188 C 232.488281 527.117188 232.800781 527.023438 233.121094 526.957031 C 233.441406 526.894531 233.765625 526.863281 234.09375 526.863281 C 234.417969 526.863281 234.742188 526.894531 235.0625 526.957031 C 235.386719 527.023438 235.695312 527.117188 236 527.242188 C 236.300781 527.367188 236.589844 527.519531 236.859375 527.703125 C 237.132812 527.882812 237.382812 528.089844 237.613281 528.320312 C 237.847656 528.550781 238.054688 528.804688 238.234375 529.074219 C 238.417969 529.347656 238.570312 529.632812 238.695312 529.933594 C 238.820312 530.238281 238.914062 530.546875 238.976562 530.871094 C 239.042969 531.191406 239.074219 531.515625 239.074219 531.839844 Z M 239.074219 531.839844 " fill-opacity="1" fill-rule="nonzero"/><path fill="#2492dd" d="M 244.632812 514.492188 C 244.632812 514.820312 244.601562 515.144531 244.539062 515.464844 C 244.472656 515.785156 244.378906 516.09375 244.253906 516.398438 C 244.128906 516.699219 243.976562 516.984375 243.792969 517.257812 C 243.613281 517.53125 243.40625 517.78125 243.175781 518.011719 C 242.941406 518.242188 242.691406 518.449219 242.417969 518.632812 C 242.148438 518.8125 241.859375 518.964844 241.558594 519.089844 C 241.257812 519.214844 240.945312 519.3125 240.625 519.375 C 240.304688 519.4375 239.980469 519.46875 239.652344 519.46875 C 239.324219 519.46875 239 519.4375 238.679688 519.375 C 238.359375 519.3125 238.046875 519.214844 237.746094 519.089844 C 237.441406 518.964844 237.15625 518.8125 236.882812 518.632812 C 236.613281 518.449219 236.359375 518.242188 236.128906 518.011719 C 235.898438 517.78125 235.691406 517.53125 235.507812 517.257812 C 235.328125 516.988281 235.175781 516.699219 235.050781 516.398438 C 234.925781 516.09375 234.828125 515.785156 234.765625 515.464844 C 234.703125 515.144531 234.671875 514.820312 234.671875 514.492188 C 234.671875 514.164062 234.703125 513.84375 234.765625 513.519531 C 234.828125 513.199219 234.925781 512.890625 235.050781 512.585938 C 235.175781 512.285156 235.328125 512 235.507812 511.726562 C 235.691406 511.453125 235.898438 511.203125 236.128906 510.972656 C 236.359375 510.742188 236.613281 510.535156 236.882812 510.351562 C 237.15625 510.171875 237.441406 510.019531 237.746094 509.894531 C 238.046875 509.769531 238.359375 509.675781 238.679688 509.609375 C 239 509.546875 239.324219 509.515625 239.652344 509.515625 C 239.980469 509.515625 240.304688 509.546875 240.625 509.609375 C 240.945312 509.675781 241.257812 509.769531 241.558594 509.894531 C 241.859375 510.019531 242.148438 510.171875 242.417969 510.351562 C 242.691406 510.535156 242.941406 510.742188 243.175781 510.972656 C 243.40625 511.203125 243.613281 511.453125 243.792969 511.726562 C 243.976562 512 244.128906 512.285156 244.253906 512.585938 C 244.378906 512.890625 244.472656 513.199219 244.539062 513.519531 C 244.601562 513.84375 244.632812 514.164062 244.632812 514.492188 Z M 244.632812 514.492188 " fill-opacity="1" fill-rule="nonzero"/><path fill="#1b72c1" d="M 47.441406 589.210938 C 47.429688 589.210938 47.417969 589.210938 47.40625 589.210938 C 45.308594 589.191406 43.617188 587.46875 43.640625 585.367188 C 44.011719 549.960938 61.214844 517.828125 90.84375 497.203125 C 115.621094 479.945312 144.890625 474.179688 167.242188 482.164062 C 169.226562 482.875 170.253906 485.050781 169.546875 487.03125 C 168.84375 489.011719 166.636719 490.03125 164.679688 489.335938 C 144.617188 482.167969 117.992188 487.574219 95.195312 503.449219 C 67.621094 522.648438 51.601562 552.535156 51.257812 585.445312 C 51.234375 587.535156 49.53125 589.214844 47.441406 589.210938 Z M 47.441406 589.210938 " fill-opacity="1" fill-rule="nonzero"/><path fill="#1b72c1" d="M 84.15625 613.710938 C 89.964844 611.796875 92.445312 605.171875 89.296875 599.1875 C 78.855469 579.335938 65.296875 566.511719 45.25 573.113281 C 25.363281 579.664062 21.929688 598.082031 25.347656 620.246094 C 26.378906 626.925781 32.3125 630.78125 38.121094 628.871094 Z M 84.15625 613.710938 " fill-opacity="1" fill-rule="nonzero"/><path fill="#1b72c1" d="M 53.546875 647.621094 C 51.390625 648.332031 49.066406 647.160156 48.355469 645.003906 L 40.199219 620.28125 L 48.015625 617.707031 L 56.167969 642.433594 C 56.878906 644.589844 55.707031 646.910156 53.546875 647.621094 Z M 53.546875 647.621094 " fill-opacity="1" fill-rule="nonzero"/><path fill="#1b72c1" d="M 83.253906 637.839844 C 81.097656 638.550781 78.773438 637.378906 78.0625 635.222656 L 69.90625 610.496094 L 77.722656 607.925781 L 85.875 632.648438 C 86.585938 634.804688 85.414062 637.128906 83.253906 637.839844 Z M 83.253906 637.839844 " fill-opacity="1" fill-rule="nonzero"/><path fill="#2492dd" d="M 167.421875 309.394531 C 156.398438 308.542969 145.777344 306.304688 135.75 303.347656 C 99.765625 292.703125 71.136719 272.328125 58.003906 270.050781 C 57.546875 269.972656 57.082031 269.929688 56.652344 269.894531 C 56.386719 269.847656 56.113281 269.839844 55.832031 269.871094 C 55.519531 269.855469 55.246094 269.847656 54.964844 269.878906 C 54.960938 269.914062 54.921875 269.910156 54.914062 269.945312 C 54.511719 269.996094 54.140625 270.089844 53.804688 270.226562 C 41.40625 274.796875 37.585938 294.292969 74.9375 340.074219 C 82.617188 349.488281 90.472656 357.523438 98.105469 364.347656 C 117.015625 381.253906 147.265625 375.957031 158.183594 353.066406 C 163.597656 341.714844 167.554688 327.273438 167.421875 309.394531 Z M 167.421875 309.394531 " fill-opacity="1" fill-rule="nonzero"/><path fill="#70caf2" d="M 167.300781 310.078125 L 167.421875 309.394531 C 156.398438 308.542969 145.777344 306.304688 135.75 303.347656 C 99.765625 292.703125 71.136719 272.328125 58.003906 270.050781 C 57.546875 269.972656 57.082031 269.929688 56.652344 269.894531 C 56.386719 269.847656 56.113281 269.839844 55.832031 269.871094 C 55.519531 269.855469 55.246094 269.847656 54.964844 269.878906 C 54.960938 269.914062 54.921875 269.910156 54.914062 269.945312 C 47.882812 279.179688 72.972656 307.269531 99.875 320.898438 C 121.914062 332.0625 162.75 336.289062 167.300781 310.078125 Z M 167.300781 310.078125 " fill-opacity="1" fill-rule="nonzero"/><path fill="#0f5784" d="M 86.476562 424.441406 L 102.460938 231.859375 C 132.136719 226.386719 156.066406 202.144531 159.71875 170.625 C 162.027344 150.710938 155.777344 131.792969 143.902344 117.496094 L 129.671875 115.851562 L 124.09375 163.984375 L 88.054688 181.308594 L 55.734375 156.074219 L 61.316406 107.941406 L 47.085938 106.292969 C 32.253906 117.496094 21.839844 134.488281 19.535156 154.398438 C 15.878906 185.921875 33.628906 214.984375 61.273438 227.09375 L 32.78125 418.230469 C 30.429688 433.382812 41.152344 447.457031 56.398438 449.222656 C 71.644531 450.988281 85.300781 439.734375 86.476562 424.441406 Z M 59.332031 430.300781 C 54.4375 429.734375 50.929688 425.3125 51.5 420.421875 C 52.066406 415.53125 56.492188 412.027344 61.386719 412.589844 C 66.28125 413.15625 69.789062 417.582031 69.222656 422.472656 C 68.652344 427.359375 64.226562 430.867188 59.332031 430.300781 Z M 59.332031 430.300781 " fill-opacity="1" fill-rule="nonzero"/><path fill="#2492dd" d="M 55.78125 264.433594 C 55.78125 264.433594 73.125 282.441406 68.167969 299.058594 C 64.582031 311.085938 54.925781 313.300781 48.617188 312.519531 C 41.363281 305.609375 33.015625 280.117188 55.78125 264.433594 Z M 55.78125 264.433594 " fill-opacity="1" fill-rule="nonzero"/></svg>